<?xml version="1.0" encoding="utf-8"?>
<!-- Generator: Adobe Illustrator 25.2.1, SVG Export Plug-In . SVG Version: 6.00 Build 0)  -->
<svg version="1.1" id="Layer_1" xmlns="http://www.w3.org/2000/svg" xmlns:xlink="http://www.w3.org/1999/xlink" x="0px" y="0px"
	 viewBox="0 0 173.78 97.86" style="enable-background:new 0 0 173.78 97.86;" xml:space="preserve">
<style type="text/css">
	.st0{fill:#FFFFFF;}
</style>
<path class="st0" d="M93.44,14.13c16.41,0,31.49,4.76,31.49,18.52c0,8.34-5.96,12.31-12.97,14.82v0.27
	c8.2,2.38,14.83,7.41,14.83,17.46c0,10.59-9.53,18.52-26.2,18.52H52.03v-2.38c2.51,0,3.7-0.8,3.7-2.39V18.89
	c0-1.59-1.19-2.38-3.7-2.38v-2.38H93.44z M70.81,41.39h25.27c7.94,0,13.76-1.32,13.76-7.94c0-6.61-5.82-7.94-13.76-7.94H70.81V41.39
	z M70.81,71.56h25.27c10.85,0,15.61-3.71,15.61-9.39c0-5.69-4.76-9.4-15.61-9.4H70.81V71.56z"/>
<path class="st0" d="M11.59,62.34c0-7.62-2.13-11.28-11.59-13.41c9.45-2.13,11.59-5.79,11.59-13.41V16.46
	C11.59,2.44,19.97,0,35.97,0v2.13c-7.62,1.83-10.36,6.4-10.36,14.48v17.07c0,8.39-1.83,13.11-12.35,15.09v0.31
	c10.52,1.98,12.35,6.71,12.35,15.09v17.07c0,8.08,2.74,12.65,10.36,14.49v2.13c-16,0-24.39-2.44-24.39-16.46V62.34z"/>
<path class="st0" d="M162.2,35.52c0,7.62,2.14,11.28,11.59,13.41c-9.45,2.13-11.59,5.79-11.59,13.41V81.4
	c0,14.02-8.38,16.46-24.39,16.46v-2.13c7.62-1.84,10.37-6.41,10.37-14.49V64.18c0-8.39,1.83-13.12,12.35-15.09v-0.31
	c-10.52-1.98-12.35-6.7-12.35-15.09V16.62c0-8.08-2.74-12.65-10.37-14.48V0c16.01,0,24.39,2.44,24.39,16.46V35.52z"/>
</svg>
