<?xml version="1.0" encoding="utf-8"?>
<!-- Generator: Adobe Illustrator 25.3.1, SVG Export Plug-In . SVG Version: 6.00 Build 0)  -->
<svg version="1.1" xmlns="http://www.w3.org/2000/svg" xmlns:xlink="http://www.w3.org/1999/xlink" x="0px" y="0px"
	 viewBox="0 0 800 800" style="enable-background:new 0 0 800 800;" xml:space="preserve">
<style type="text/css">
	.st0{fill:#B28A90;}
	.st1{fill:#E6E7E8;}
	.st2{display:none;}
</style>
<g id="Layer_1">
</g>
<g id="Layer_2">
	<g>
		<path class="st0" d="M535.19,613.31l-0.03-426.62l-0.03-0.03l-135.19-78.03l-135.13,78.03v426.62L400,691.37L535.19,613.31z
			 M400,670.55l-117.19-67.96l0.03-405.51L400,129.42l117.14,67.64l0.03,406L400,670.55z"/>
		<path class="st1" d="M499.14,592.49V415.26l-26.55-15.52l26.55-15.34V207.51l-99.2-57.27l-99.08,57.24v385.04l36.05,20.82V228.27
			l18.02-10.39v405.86l36.05,20.82V197.06l8.97-5.21h0.03l9.03,5.24v447.47L499.14,592.49z M445.4,218.08l17.5,10.13v145.7
			l-17.62-10.19L445.4,218.08z M445.22,405.36l17.67,10.19v156.04l-17.82,10.25L445.22,405.36z"/>
		<polygon class="st1" points="246.79,384.32 219.76,399.92 246.79,415.69 		"/>
		<polygon class="st1" points="553.21,415.69 580.24,400.08 553.21,384.32 		"/>
	</g>
</g>
<g id="Layer_3" class="st2">
</g>
</svg>
